# xmcd CD database file
#
# Track frame offsets:
#	150
#	21995
#	48975
#	64397
#	88452
#	114855
#	139472
#	160235
#	182485
#	207595
#	231245
#	256110
#	283022
#
# Disc length: 3933 seconds
#
# Revision: 0
# Processed by: cddbd v1.5.2PL0 Copyright (c) Steve Scherf et al.
# Submitted via: CDex 1.51
#
DISCID=c20f5b0d
DTITLE=Masaji Watanabe - Miyabi (Courtly Elegance)
DYEAR=2006
DGENRE=New Age
TTITLE0=Courtly Elegance
TTITLE1=Reminiscence
TTITLE2=Shower of Spring Sunlight
TTITLE3=Hand Pillow by the Wind
TTITLE4=Ancient Way
TTITLE5=Last Days of Autumn
TTITLE6=Graceful Autumn
TTITLE7=The Far Distant Xi'an
TTITLE8=Moonlight
TTITLE9=Bamboo Grass Boat
TTITLE10=Ocean Sounds
TTITLE11=Dyed Lapis Lazuli
TTITLE12=Dawn
EXTD=YEAR: 2006
EXTT0=
EXTT1=
EXTT2=
EXTT3=
EXTT4=
EXTT5=
EXTT6=
EXTT7=
EXTT8=
EXTT9=
EXTT10=
EXTT11=
EXTT12=
PLAYORDER=
